<svg width="536" height="536" fill="none" xmlns="http://www.w3.org/2000/svg"><g filter="url(#a)"><g clip-path="url(#b)"><rect x="12" y="12" width="512" height="512" rx="128" fill="#11151E"/><path fill="#fff" fill-opacity=".05" d="M268 12h261v512H268z"/><g clip-path="url(#c)" fill="#32C59E"><path d="M137.594 408.281c-1.438 0-2.5-.437-3.188-1.312-.625-.938-1.062-2.063-1.312-3.375l-7.125-42c-.063-.25-.094-.5-.094-.75v-.75c0-2.188 1.156-3.282 3.469-3.282 1.125 0 1.937.344 2.437 1.032.563.687.938 1.562 1.125 2.625l5.344 32.625 4.875-31.219c.25-1.437.719-2.625 1.406-3.563.75-1 1.907-1.5 3.469-1.5 1.625 0 2.781.5 3.469 1.5.687.938 1.156 2.126 1.406 3.563l4.781 31.219L163 360.562c.188-1.062.531-1.937 1.031-2.624.5-.75 1.344-1.126 2.531-1.126 2.313 0 3.469 1.126 3.469 3.376v.75c0 .25-.031.468-.093.656l-7.126 42.094c-.25 1.312-.718 2.406-1.406 3.281-.625.875-1.656 1.312-3.094 1.312-1.374 0-2.437-.437-3.187-1.312-.687-.938-1.125-2.031-1.313-3.281L148 367.781l-5.812 35.813c-.25 1.312-.719 2.437-1.407 3.375-.687.875-1.75 1.312-3.187 1.312zM196 346.875c-4.062 0-6.094-2.031-6.094-6.094 0-4.062 2.063-6.093 6.188-6.093 1.625 0 3.031.624 4.218 1.874 1.188 1.188 1.782 2.594 1.782 4.219 0 4.063-2.032 6.094-6.094 6.094zm-.094 61.406c-1.625 0-2.781-.5-3.468-1.5-.626-1-.938-2.25-.938-3.75v-40.406c0-1.5.312-2.75.938-3.75.687-1.063 1.843-1.594 3.468-1.594s2.75.531 3.375 1.594c.688 1 1.031 2.25 1.031 3.75v40.406c0 1.5-.343 2.75-1.031 3.75-.625 1-1.75 1.5-3.375 1.5zm35.438-1.312c-1.938 0-3.563-.407-4.875-1.219-1.313-.812-1.969-2.281-1.969-4.406 0-.875.188-1.688.562-2.438.438-.812.907-1.531 1.407-2.156l25.312-30.844h-21.937c-1.313 0-2.438-.281-3.375-.844-.875-.562-1.313-1.562-1.313-3 0-1.437.438-2.437 1.313-3 .937-.562 2.062-.843 3.375-.843h25.781c1.875 0 3.469.375 4.781 1.125 1.375.75 2.063 2.187 2.063 4.312 0 .813-.188 1.594-.563 2.344a13.455 13.455 0 0 1-1.312 1.969l-25.688 31.312h23.906c1.313 0 2.407.281 3.282.844.937.563 1.406 1.563 1.406 3s-.469 2.437-1.406 3c-.875.563-1.969.844-3.282.844h-27.468zm55.781 1.312c-4.375 0-8.094-1.187-11.156-3.562-3-2.375-4.5-5.875-4.5-10.5 0-3.438.687-6.25 2.062-8.438 1.375-2.25 3.219-4 5.531-5.25 2.313-1.25 4.844-2.156 7.594-2.719a49.08 49.08 0 0 1 8.532-1.124c2.937-.188 5.656-.313 8.156-.376 0-2.624-.219-4.812-.656-6.562-.438-1.75-1.376-3.062-2.813-3.938-1.437-.937-3.656-1.406-6.656-1.406-2.5 0-4.407.438-5.719 1.313-1.312.875-2.375 1.906-3.188 3.093a19.497 19.497 0 0 1-2.437 3c-.813.876-2 1.313-3.563 1.313-1.25 0-2.312-.281-3.187-.844-.813-.625-1.219-1.625-1.219-3 0-1.062.25-2.062.75-3 .5-1 1.063-1.906 1.688-2.719 2-2.562 4.437-4.312 7.312-5.25 2.875-1 5.875-1.5 9-1.5 3.688 0 6.938.563 9.75 1.688 2.875 1.062 5.125 2.812 6.75 5.25 1.688 2.375 2.532 5.562 2.532 9.562v30.75c0 2.813-1.407 4.219-4.219 4.219-1.625 0-2.719-.406-3.281-1.219-.563-.812-.844-1.812-.844-3V400.5a26.605 26.605 0 0 1-7.313 5.625c-2.687 1.437-5.656 2.156-8.906 2.156zm.563-7.219c2 0 3.906-.343 5.718-1.031a18.696 18.696 0 0 0 5.063-3c.875-.75 1.906-1.781 3.093-3.093 1.188-1.376 1.782-2.719 1.782-4.032v-7.218c-1.563.062-3.344.156-5.344.281-2 .062-4.062.281-6.188.656-2.062.313-4 .875-5.812 1.687-1.812.75-3.281 1.844-4.406 3.282-1.063 1.375-1.594 3.156-1.594 5.344 0 2.5.656 4.312 1.969 5.437 1.375 1.125 3.281 1.687 5.719 1.687zm44.156 7.219c-1.563 0-2.656-.5-3.282-1.5-.624-1-.937-2.219-.937-3.656v-41.156c0-1.5.313-2.719.937-3.657.626-1 1.75-1.5 3.376-1.5 1.687 0 2.812.469 3.374 1.407.563.937.844 2.062.844 3.375v3.656c1.813-2.312 3.875-4.281 6.188-5.906 2.375-1.688 5.094-2.532 8.156-2.532 1.375 0 2.438.313 3.188.938.812.625 1.218 1.656 1.218 3.094 0 1.687-.625 2.844-1.875 3.468-1.187.626-2.5 1.032-3.937 1.219-1.875.25-3.813.875-5.813 1.875-2 1-3.687 2.313-5.062 3.938-1.375 1.562-2.063 3.437-2.063 5.625v26.156c0 1.5-.312 2.75-.937 3.75-.625.937-1.75 1.406-3.375 1.406zm53.718 0c-3.562 0-6.531-.781-8.906-2.343-2.312-1.626-4.156-3.75-5.531-6.376-1.375-2.624-2.344-5.468-2.906-8.531a49.709 49.709 0 0 1-.844-9c0-2.875.313-5.781.937-8.719.626-2.937 1.657-5.656 3.094-8.156 1.438-2.5 3.313-4.5 5.625-6 2.375-1.562 5.25-2.344 8.625-2.344 2.938 0 5.5.719 7.688 2.157 2.25 1.375 4.156 3.25 5.718 5.625v-24.656c0-1.5.313-2.719.938-3.657.625-1 1.75-1.5 3.375-1.5s2.719.5 3.281 1.5c.625 1 .938 2.219.938 3.657v64.031c0 2.875-1.438 4.312-4.313 4.312-1.625 0-2.75-.375-3.375-1.125-.562-.75-.844-1.687-.844-2.812v-3.563c-1.562 2.375-3.468 4.219-5.718 5.531-2.25 1.313-4.844 1.969-7.782 1.969zm1.219-7.593c2.25 0 4.281-.563 6.094-1.688a12.927 12.927 0 0 0 4.5-4.5c1.125-1.938 1.687-4 1.687-6.188v-10.968c0-2.188-.562-4.25-1.687-6.188-1.063-2-2.5-3.625-4.313-4.875-1.812-1.25-3.843-1.875-6.093-1.875-2.375 0-4.281.594-5.719 1.782-1.438 1.124-2.531 2.593-3.281 4.406-.688 1.812-1.157 3.75-1.407 5.812-.25 2.063-.374 4-.374 5.813 0 1.75.093 3.687.281 5.812.25 2.125.719 4.157 1.406 6.094.75 1.937 1.813 3.531 3.187 4.781 1.438 1.188 3.344 1.782 5.719 1.782z"/><path d="m134.406 412.969-.832.554.022.033.024.031.786-.618zm-1.312-3.375-.986.167.002.01.001.01.983-.187zm-7.125-42 .986-.168-.007-.037-.009-.038-.97.243zm5.812-3.75-.808.588.016.023.018.022.774-.633zm1.125 2.625.987-.162-.002-.012-.985.174zm5.344 32.625-.987.161 1.975-.007-.988-.154zm4.875-31.219-.985-.171-.002.008-.001.009.988.154zm1.406-3.563-.8-.6-.006.009.806.591zm6.938 0-.824.567.008.013.009.012.807-.592zm1.406 3.563.988-.151-.001-.01-.002-.01-.985.171zm4.781 31.219-.988.151 1.975.011-.987-.162zM163 366.562l-.985-.173-.002.011.987.162zm1.031-2.624.809.588.012-.017.011-.017-.832-.554zm5.907 3.656-.949-.316-.025.073-.012.076.986.167zm-7.126 42.094.983.187.002-.01.001-.011-.986-.166zm-1.406 3.281-.786-.618-.014.018-.013.019.813.581zm-6.281 0-.806.591.022.031.025.029.759-.651zm-1.313-3.281.99-.149-.002-.011-.988.16zM148 373.781l.987-.16h-1.974l.987.16zm-5.812 35.813.982.187.002-.014.003-.013-.987-.16zm-1.407 3.375.787.618.01-.013.01-.014-.807-.591zm-3.187.312c-1.228 0-1.956-.364-2.401-.93l-1.573 1.236c.93 1.183 2.327 1.694 3.974 1.694v-2zm-2.356-.867c-.538-.808-.932-1.802-1.162-3.007l-1.965.374c.271 1.42.752 2.675 1.463 3.742l1.664-1.109zm-1.158-2.988-7.125-42-1.972.335 7.125 42 1.972-.335zm-7.141-42.075a2.09 2.09 0 0 1-.064-.507h-2c0 .334.042.665.124.992l1.94-.485zm-.064-.507V366.094h-2V366.844h2zm0-.75c0-.925.242-1.439.554-1.735.323-.305.899-.547 1.915-.547v-2c-1.297 0-2.456.306-3.289 1.094-.844.798-1.18 1.925-1.18 3.188h2zm2.469-2.282c.918 0 1.375.271 1.629.62l1.617-1.176c-.746-1.026-1.914-1.444-3.246-1.444v2zm1.663.665c.433.529.75 1.236.914 2.166l1.97-.348c-.211-1.195-.644-2.239-1.336-3.084l-1.548 1.266zm.912 2.153 5.344 32.625 1.974-.323-5.344-32.625-1.974.323zm7.319 32.618 4.875-31.219-1.976-.308-4.875 31.218 1.976.309zm4.872-31.202c.23-1.323.652-2.357 1.228-3.142l-1.613-1.183c-.799 1.09-1.315 2.431-1.585 3.983l1.97.342zm1.221-3.134c.515-.685 1.334-1.1 2.669-1.1v-2c-1.79 0-3.283.586-4.269 1.901l1.6 1.199zm2.669-1.1c1.419 0 2.204.426 2.645 1.067l1.648-1.133c-.934-1.359-2.462-1.934-4.293-1.934v2zm2.662 1.092c.576.785.998 1.819 1.228 3.142l1.97-.342c-.27-1.552-.786-2.893-1.585-3.983l-1.613 1.183zm1.225 3.122 4.781 31.219 1.977-.303-4.782-31.218-1.976.302zm6.756 31.23 5.344-32.531-1.974-.325-5.344 32.532 1.974.324zm5.342-32.52c.168-.952.465-1.674.855-2.21l-1.617-1.177c-.611.839-1.001 1.867-1.208 3.04l1.97.347zm.878-2.244c.258-.386.728-.68 1.699-.68v-2c-1.403 0-2.62.457-3.363 1.571l1.664 1.109zm1.699-.68c1.009 0 1.581.246 1.905.561.318.31.564.851.564 1.815h2c0-1.287-.332-2.433-1.17-3.248-.832-.811-1.995-1.128-3.299-1.128v2zm2.469 2.376V366.938h2V366.188h-2zm0 .75c0 .169-.021.277-.042.34l1.897.632a3.07 3.07 0 0 0 .145-.972h-2zm-.079.489-7.125 42.094 1.971.333 7.125-42.093-1.971-.334zM161.83 409.5c-.226 1.187-.639 2.125-1.21 2.851l1.573 1.236c.804-1.024 1.328-2.274 1.602-3.712l-1.965-.375zm-1.237 2.888c-.378.528-1.047.893-2.281.893v2c1.642 0 3.035-.509 3.908-1.731l-1.627-1.162zm-2.281.893c-1.145 0-1.905-.353-2.428-.963l-1.518 1.302c.977 1.139 2.342 1.661 3.946 1.661v-2zm-2.381-.904c-.583-.795-.964-1.734-1.13-2.838l-1.977.297c.209 1.396.703 2.645 1.495 3.724l1.612-1.183zm-1.131-2.849-5.813-35.907-1.974.32 5.812 35.906 1.975-.319zm-7.787-35.907-5.813 35.813 1.975.32 5.812-35.813-1.974-.32zm-5.808 35.786c-.226 1.188-.643 2.17-1.23 2.97l1.613 1.183c.787-1.074 1.308-2.342 1.582-3.779l-1.965-.374zm-1.21 2.944c-.445.566-1.173.93-2.401.93v2c1.647 0 3.044-.511 3.974-1.694l-1.573-1.236zm60.317-69.789-.725.689.009.01.009.009.707-.708zm-7.874 70.219-.848.53.011.019.012.018.825-.567zm0-47.906-.84-.543-.004.006-.004.007.848.53zm6.843 0-.862.507.018.03.02.03.824-.567zm0 47.906-.824-.566-.012.018-.012.018.848.53zM196 351.875c-1.877 0-3.101-.469-3.863-1.231-.762-.761-1.231-1.986-1.231-3.863h-2c0 2.186.547 4.008 1.817 5.278 1.269 1.269 3.092 1.816 5.277 1.816v-2zm-5.094-5.094c0-1.873.475-3.095 1.249-3.858.777-.765 2.027-1.235 3.939-1.235v-2c-2.213 0-4.057.545-5.343 1.81-1.288 1.269-1.845 3.094-1.845 5.283h2zm5.188-5.093c1.332 0 2.482.498 3.493 1.563l1.451-1.377c-1.364-1.435-3.027-2.186-4.944-2.186v2zm3.511 1.582c1.007 1.007 1.489 2.161 1.489 3.511h2c0-1.9-.706-3.558-2.074-4.926l-1.415 1.415zm1.489 3.511c0 1.877-.469 3.102-1.231 3.863-.762.762-1.986 1.231-3.863 1.231v2c2.185 0 4.008-.547 5.277-1.816 1.27-1.27 1.817-3.092 1.817-5.278h-2zm-5.188 66.5c-1.418 0-2.204-.425-2.644-1.066l-1.649 1.133c.935 1.359 2.462 1.933 4.293 1.933v-2zm-2.621-1.03c-.501-.803-.785-1.857-.785-3.22h-2c0 1.637.341 3.083 1.09 4.28l1.695-1.06zm-.785-3.22v-40.406h-2v40.406h2zm0-40.406c0-1.363.284-2.417.785-3.22l-1.695-1.06c-.749 1.197-1.09 2.643-1.09 4.28h2zm.777-3.207c.451-.697 1.235-1.137 2.629-1.137v-2c-1.855 0-3.384.623-4.308 2.051l1.679 1.086zm2.629-1.137c1.399 0 2.125.44 2.513 1.101l1.724-1.014c-.861-1.464-2.386-2.087-4.237-2.087v2zm2.551 1.161c.549.797.855 1.837.855 3.183h2c0-1.654-.38-3.114-1.207-4.317l-1.648 1.134zm.855 3.183v40.406h2v-40.406h-2zm0 40.406c0 1.346-.306 2.386-.855 3.184l1.648 1.133c.827-1.203 1.207-2.663 1.207-4.317h-2zm-.879 3.22c-.377.603-1.102 1.03-2.527 1.03v2c1.826 0 3.35-.573 4.223-1.97l-1.696-1.06zm26.629-7.345-.88-.474-.007.013-.007.014.894.447zm1.407-2.156-.773-.634-.008.009.781.625zm25.312-30.844.773.635 1.342-1.635h-2.115v1zm-25.312-.844-.541.842.013.008.013.008.515-.858zm0-6-.515-.857-.013.008-.013.008.541.841zm33.937.282-.496.868.009.005.008.005.479-.878zm1.5 6.656.878.479.009-.016.008-.016-.895-.447zm-1.312 1.969.773.634.008-.01-.781-.624zm-25.688 31.312-.773-.634-1.341 1.634h2.114v-1zm27.188.844-.541.841.013.009.013.007.515-.857zm0 6-.515-.857-.013.007-.013.009.541.841zm-30.75-.156c-1.799 0-3.23-.377-4.349-1.069l-1.053 1.7c1.507.933 3.325 1.369 5.402 1.369v-2zm-4.349-1.069c-.913-.565-1.495-1.633-1.495-3.556h-2c0 2.326.73 4.196 2.442 5.256l1.053-1.7zm-1.495-3.556c0-.727.154-1.385.457-1.991l-1.789-.894a6.379 6.379 0 0 0-.668 2.885h2zm.443-1.964c.413-.767.849-1.434 1.307-2.005l-1.562-1.25a15.29 15.29 0 0 0-1.506 2.307l1.761.948zm1.299-1.996 25.312-30.843-1.546-1.269-25.312 30.844 1.546 1.268zm24.539-32.478h-21.937v2h21.937v-2zm-21.937 0c-1.168 0-2.107-.249-2.861-.701l-1.029 1.715c1.122.673 2.433.986 3.89.986v-2zm-2.834-.685c-.487-.312-.854-.918-.854-2.159h-2c0 1.635.508 3.029 1.772 3.842l1.082-1.683zm-.854-2.159c0-1.24.367-1.846.854-2.158l-1.082-1.683c-1.264.813-1.772 2.207-1.772 3.841h2zm.827-2.142c.754-.452 1.693-.701 2.861-.701v-2c-1.457 0-2.768.313-3.89.986l1.029 1.715zm2.861-.701h25.781v-2h-25.781v2zm25.781 0c1.742 0 3.156.348 4.285.993l.992-1.736c-1.495-.855-3.269-1.257-5.277-1.257v2zm4.302 1.003c.942.513 1.542 1.526 1.542 3.434h2c0-2.341-.775-4.203-2.584-5.19l-.958 1.756zm1.542 3.434a4.18 4.18 0 0 1-.457 1.897l1.789.894a6.177 6.177 0 0 0 .668-2.791h-2zm-.441 1.865a12.455 12.455 0 0 1-1.215 1.823l1.562 1.249a14.446 14.446 0 0 0 1.409-2.114l-1.756-.958zm-1.207 1.814-25.688 31.312 1.546 1.268 25.688-31.312-1.546-1.268zm-24.915 32.946h23.906v-2h-23.906v2zm23.906 0c1.171 0 2.065.25 2.741.685l1.082-1.682c-1.074-.69-2.368-1.003-3.823-1.003v2zm2.767.701c.543.326.921.931.921 2.143h2c0-1.663-.559-3.058-1.892-3.857l-1.029 1.714zm.921 2.143c0 1.212-.378 1.817-.921 2.143l1.029 1.714c1.333-.799 1.892-2.194 1.892-3.857h-2zm-.947 2.159c-.676.435-1.57.685-2.741.685v2c1.455 0 2.749-.313 3.823-1.003l-1.082-1.682zm-2.741.685h-27.468v2h27.468v-2zm17.157-1.25-.621.784.008.006.613-.79zm-2.438-18.938.847.532.007-.01-.854-.522zm13.125-7.969.201.98.008-.001.008-.002-.217-.977zm8.532-1.124.043.999.01-.001.01-.001-.063-.997zm8.156-.376.025 1 .975-.024v-.976h-1zm-3.469-10.5-.546.838.013.009.013.008.52-.855zm-15.563 3-.825-.564-.007.01.832.554zm-2.437 3-.707-.707-.013.013-.013.014.733.68zm-6.75.469-.61.793.034.026.035.022.541-.841zm-.469-6 .883.471.006-.012.006-.012-.895-.447zm1.688-2.719-.789-.615-.004.006.793.609zm7.312-5.25.31.951.01-.003.009-.003-.329-.945zm18.75.188-.371.928.012.005.013.005.346-.938zm6.75 5.25-.832.555.008.012.009.012.815-.579zm-5.812 36.75h1v-2.566l-1.737 1.889.737.677zm-7.313 5.625-.463-.886-.008.004.471.882zm-2.625-6.094.355.935.008-.003.009-.003-.372-.929zm5.063-3 .64.769.011-.009-.651-.76zm3.093-3.093.742.67.008-.008.007-.009-.757-.653zm1.782-11.25h1v-1.041l-1.04.041.04 1zm-5.344.281.031.999h.016l.015-.001-.062-.998zm-6.188.656.15.989.012-.002.012-.002-.174-.985zM286 391.312l.382.925.014-.006.013-.006-.409-.913zm-4.406 3.282-.788-.617-.004.005.792.612zm.375 10.781-.651.759.009.008.009.007.633-.774zm5.156 7.906c-4.183 0-7.679-1.131-10.543-3.352l-1.226 1.58c3.26 2.528 7.202 3.772 11.769 3.772v-2zm-10.536-3.346c-2.709-2.146-4.12-5.326-4.12-9.716h-2c0 4.859 1.589 8.679 4.879 11.284l1.241-1.568zm-4.12-9.716c0-3.31.662-5.922 1.909-7.906l-1.693-1.064c-1.504 2.392-2.216 5.405-2.216 8.97h2zm1.916-7.916a13.396 13.396 0 0 1 5.153-4.892l-.951-1.759a15.402 15.402 0 0 0-5.909 5.608l1.707 1.043zm5.153-4.892c2.221-1.2 4.658-2.075 7.319-2.619l-.401-1.959c-2.84.581-5.465 1.519-7.869 2.819l.951 1.759zm7.335-2.622a47.975 47.975 0 0 1 8.358-1.102l-.087-1.999a50.203 50.203 0 0 0-8.705 1.148l.434 1.953zm8.378-1.104c2.927-.186 5.633-.311 8.118-.373l-.05-1.999c-2.515.063-5.247.188-8.195.377l.127 1.995zm9.093-1.373c0-2.673-.222-4.948-.686-6.805l-1.941.486c.411 1.643.627 3.743.627 6.319h2zm-.686-6.805c-.497-1.984-1.584-3.526-3.263-4.549l-1.04 1.709c1.196.727 1.984 1.81 2.362 3.326l1.941-.486zm-3.237-4.532c-1.681-1.097-4.136-1.569-7.202-1.569v2c2.933 0 4.916.466 6.11 1.244l1.092-1.675zm-7.202-1.569c-2.592 0-4.727.449-6.274 1.481l1.11 1.664c1.078-.719 2.755-1.145 5.164-1.145v-2zm-6.274 1.481c-1.408.939-2.566 2.058-3.458 3.361l1.651 1.129c.733-1.072 1.7-2.015 2.917-2.826l-1.11-1.664zm-3.465 3.371a18.555 18.555 0 0 1-2.312 2.847l1.414 1.415a20.636 20.636 0 0 0 2.563-3.153l-1.665-1.109zm-2.338 2.874c-.569.613-1.455.993-2.83.993v2c1.751 0 3.24-.495 4.296-1.632l-1.466-1.361zm-2.83.993c-1.097 0-1.963-.245-2.646-.685l-1.082 1.682c1.067.686 2.326 1.003 3.728 1.003v-2zm-2.577-.636c-.488-.376-.829-1.029-.829-2.208h-2c0 1.572.472 2.918 1.609 3.793l1.22-1.585zm-.829-2.208c0-.898.21-1.736.633-2.529l-1.765-.941a7.283 7.283 0 0 0-.868 3.47h2zm.645-2.553a15.78 15.78 0 0 1 1.585-2.556l-1.585-1.219a17.67 17.67 0 0 0-1.789 2.881l1.789.894zm1.581-2.55c1.887-2.418 4.163-4.044 6.834-4.915l-.62-1.901c-3.078 1.004-5.678 2.878-7.791 5.585l1.577 1.231zm6.853-4.921a26.202 26.202 0 0 1 8.671-1.445v-2c-3.234 0-6.345.518-9.328 1.556l.657 1.889zm8.671-1.445c3.587 0 6.707.548 9.379 1.616l.743-1.856c-2.954-1.182-6.334-1.76-10.122-1.76v2zm9.404 1.626c2.686.993 4.762 2.614 6.264 4.867l1.664-1.11c-1.748-2.622-4.172-4.501-7.235-5.633l-.693 1.876zm6.281 4.891c1.53 2.153 2.347 5.115 2.347 8.983h2c0-4.131-.871-7.544-2.717-10.141l-1.63 1.158zm2.347 8.983v30.75h2v-30.75h-2zm0 30.75c0 1.253-.313 2.008-.762 2.457-.45.45-1.205.762-2.457.762v2c1.56 0 2.914-.391 3.871-1.347.957-.957 1.348-2.311 1.348-3.872h-2zm-3.219 3.219c-1.511 0-2.179-.383-2.459-.788l-1.645 1.139c.845 1.22 2.364 1.649 4.104 1.649v-2zm-2.459-.788c-.425-.614-.666-1.405-.666-2.431h-2c0 1.35.321 2.559 1.021 3.57l1.645-1.139zm-.666-2.431V406.5h-2V410.062h2zm-1.737-4.239a25.599 25.599 0 0 1-7.039 5.416l.927 1.772a27.602 27.602 0 0 0 7.585-5.834l-1.473-1.354zm-7.047 5.42c-2.533 1.355-5.338 2.038-8.435 2.038v2c3.403 0 6.536-.754 9.378-2.274l-.943-1.764zm-7.872-3.181c2.117 0 4.143-.364 6.073-1.096l-.709-1.87a14.996 14.996 0 0 1-5.364.966v2zm6.09-1.102a19.685 19.685 0 0 0 5.331-3.161l-1.28-1.536a17.704 17.704 0 0 1-4.794 2.84l.743 1.857zm5.342-3.169c.919-.788 1.981-1.853 3.184-3.183l-1.483-1.341c-1.172 1.295-2.172 2.293-3.003 3.005l1.302 1.519zm3.199-3.2c1.285-1.487 2.025-3.054 2.025-4.685h-2c0 .994-.448 2.115-1.538 3.378l1.513 1.307zm2.025-4.685v-7.218h-2v7.218h2zm-1.04-8.218c-1.572.063-3.361.157-5.366.283l.124 1.996c1.995-.125 3.768-.218 5.322-.28l-.08-1.999zm-5.335.281a44.472 44.472 0 0 0-6.33.671l.347 1.97a42.348 42.348 0 0 1 6.045-.642l-.062-1.999zm-6.306.667a23.338 23.338 0 0 0-6.072 1.764l.818 1.825a21.275 21.275 0 0 1 5.553-1.611l-.299-1.978zm-6.045 1.752c-1.96.811-3.573 2.006-4.812 3.589l1.575 1.233c1.011-1.292 2.336-2.284 4.001-2.973l-.764-1.849zm-4.816 3.594c-1.229 1.591-1.802 3.605-1.802 5.956h2c0-2.025.49-3.574 1.385-4.733l-1.583-1.223zM279 399.938c0 2.658.699 4.809 2.318 6.196l1.302-1.518c-1.007-.863-1.62-2.337-1.62-4.678h-2zm2.336 6.211c1.61 1.317 3.768 1.913 6.352 1.913v-2c-2.292 0-3.946-.528-5.086-1.461l-1.266 1.548zm47.226-41.837.833.555.008-.012.007-.013-.848-.53zm7.594 6.938h-1v2.897l1.787-2.28-.787-.617zm6.188-5.906.575.818.004-.003-.579-.815zm11.344-1.594-.641.768.015.013.016.012.61-.793zm-.657 6.562-.447-.894-.009.005-.01.005.466.884zm-3.937 1.219-.13-.991h-.002l.132.991zm-10.875 5.813.75.66.007-.007.006-.007-.763-.646zm-3 35.531.832.555.008-.013.008-.012-.848-.53zm-3.375.406c-1.344 0-2.049-.415-2.434-1.03l-1.695 1.06c.865 1.386 2.347 1.97 4.129 1.97v-2zm-2.434-1.03c-.505-.809-.785-1.835-.785-3.126h-2c0 1.584.345 2.996 1.09 4.186l1.695-1.06zm-.785-3.126v-41.156h-2v41.156h2zm0-41.156c0-1.367.285-2.375.77-3.102l-1.665-1.109c-.765 1.148-1.105 2.577-1.105 4.211h2zm.785-3.127c.377-.603 1.103-1.03 2.528-1.03v-2c-1.826 0-3.35.574-4.223 1.971l1.695 1.059zm2.528-1.03c1.539 0 2.22.426 2.517.921l1.715-1.029c-.828-1.379-2.397-1.892-4.232-1.892v2zm2.517.921c.452.754.701 1.693.701 2.861h2c0-1.457-.313-2.768-.986-3.89l-1.715 1.029zm.701 2.861V371.25h2V367.594h-2zm1.787 4.273c1.755-2.239 3.747-4.139 5.976-5.705l-1.15-1.636c-2.396 1.683-4.529 3.721-6.4 6.107l1.574 1.234zm5.98-5.708c2.197-1.561 4.711-2.347 7.577-2.347v-2c-3.259 0-6.182.902-8.735 2.717l1.158 1.63zm7.577-2.347c1.235 0 2.038.282 2.547.706l1.281-1.536c-.991-.826-2.313-1.17-3.828-1.17v2zm2.578.731c.477.367.828 1.041.828 2.301h2c0-1.616-.461-3.004-1.609-3.887l-1.219 1.586zm.828 2.301c0 .723-.134 1.261-.348 1.657-.209.386-.52.69-.974.917l.894 1.789c.797-.398 1.423-.984 1.839-1.755.411-.76.589-1.644.589-2.608h-2zm-1.341 2.584c-1.074.565-2.271.938-3.601 1.112l.259 1.983c1.546-.202 2.973-.641 4.274-1.326l-.932-1.769zm-3.603 1.112c-2.003.267-4.047.931-6.128 1.972l.894 1.789c1.919-.96 3.75-1.546 5.498-1.779l-.264-1.982zm-6.128 1.972c-2.115 1.057-3.912 2.452-5.379 4.186l1.527 1.292c1.283-1.517 2.861-2.747 4.746-3.689l-.894-1.789zm-5.366 4.171c-1.544 1.755-2.312 3.869-2.312 6.286h2c0-1.958.608-3.595 1.813-4.965l-1.501-1.321zm-2.312 6.286v26.156h2v-26.156h-2zm0 26.156c0 1.363-.283 2.417-.785 3.22l1.696 1.06c.748-1.197 1.089-2.643 1.089-4.28h-2zm-.769 3.195c-.366.549-1.094.961-2.543.961v2c1.8 0 3.323-.525 4.207-1.851l-1.664-1.11zm42.269-.382-.575.818.013.008.013.009.549-.835zm.375-46.782.544.839.006-.003-.55-.836zm16.313-.187-.549.835.013.009.014.009.522-.853zm5.718 5.625-.835.549 1.835 2.79v-3.339h-1zm.938-28.313.832.555.008-.012.008-.013-.848-.53zm6.656 0-.871.491.011.02.012.019.848-.53zm-6.75 70.875-.8.6.016.021.016.019.768-.64zm-.844-6.375h1v-3.339l-1.835 2.79.835.549zM392.875 405l-.514-.857-.007.003-.006.004.527.85zm4.5-4.5.857.514.004-.006.004-.006-.865-.502zm0-23.344-.883.469.009.017.009.016.865-.502zm-16.125-4.968.616.787.011-.008.01-.009-.637-.77zm-3.281 4.406-.924-.383-.006.014-.005.014.935.355zm-1.5 17.437-.996.088.001.015.002.014.993-.117zm1.406 6.094-.942.334.004.014.005.013.933-.361zm3.187 4.781-.672.74.017.016.019.015.636-.771zm4.5 8.375c-3.416 0-6.181-.748-8.356-2.179l-1.099 1.671c2.575 1.694 5.747 2.508 9.455 2.508v-2zm-8.331-2.162c-2.176-1.529-3.915-3.53-5.22-6.021l-1.772.929c1.445 2.759 3.393 5.008 5.842 6.729l1.15-1.637zm-5.22-6.021c-1.326-2.531-2.263-5.279-2.809-8.247l-1.967.361c.58 3.156 1.58 6.096 3.004 8.815l1.772-.929zm-2.809-8.247a48.786 48.786 0 0 1-.827-8.82h-2c0 3.002.287 6.062.86 9.181l1.967-.361zm-.827-8.82c0-2.802.305-5.638.916-8.51l-1.957-.417a42.8 42.8 0 0 0-.959 8.927h2zm.916-8.51c.604-2.84 1.599-5.46 2.982-7.866l-1.734-.997c-1.491 2.594-2.559 5.411-3.205 8.446l1.957.417zm2.982-7.866c1.362-2.369 3.129-4.25 5.302-5.66l-1.088-1.678c-2.452 1.591-4.435 3.71-5.948 6.341l1.734.997zm5.308-5.663c2.183-1.437 4.858-2.18 8.075-2.18v-2c-3.533 0-6.608.82-9.174 2.509l1.099 1.671zm8.075-2.18c2.767 0 5.134.675 7.139 1.992l1.098-1.671c-2.37-1.557-5.129-2.321-8.237-2.321v2zm7.166 2.01c2.115 1.292 3.917 3.06 5.405 5.321l1.671-1.099c-1.637-2.488-3.647-4.471-6.033-5.929l-1.043 1.707zm7.24 4.772v-24.656h-2v24.656h2zm0-24.656c0-1.367.285-2.375.77-3.102l-1.664-1.109c-.765 1.148-1.106 2.577-1.106 4.211h2zm.786-3.127c.377-.603 1.102-1.03 2.527-1.03v-2c-1.825 0-3.35.573-4.223 1.97l1.696 1.06zm2.527-1.03c1.432 0 2.094.429 2.41.991l1.743-.981c-.809-1.438-2.335-2.01-4.153-2.01v2zm2.433 1.03c.506.81.786 1.835.786 3.127h2c0-1.584-.346-2.996-1.09-4.187l-1.696 1.06zm.786 3.127v64.031h2v-64.031h-2zm0 64.031c0 1.283-.32 2.062-.785 2.527-.466.465-1.244.785-2.528.785v2c1.592 0 2.969-.398 3.942-1.371.972-.972 1.371-2.35 1.371-3.941h-2zm-3.313 3.312c-1.52 0-2.267-.358-2.607-.765l-1.536 1.28c.911 1.093 2.414 1.485 4.143 1.485v-2zm-2.575-.725c-.408-.544-.644-1.259-.644-2.212h-2c0 1.297.328 2.457 1.044 3.412l1.6-1.2zm-.644-2.212V406.781h-2V410.344h2zm-1.835-4.112c-1.486 2.258-3.282 3.989-5.387 5.217l1.008 1.727c2.395-1.397 4.411-3.353 6.05-5.845l-1.671-1.099zm-5.387 5.217c-2.078 1.212-4.494 1.832-7.278 1.832v2c3.092 0 5.864-.692 8.286-2.105l-1.008-1.727zm-6.059-3.761c2.426 0 4.642-.61 6.621-1.838l-1.054-1.7c-1.646 1.022-3.492 1.538-5.567 1.538v2zm6.608-1.831a13.915 13.915 0 0 0 4.843-4.843l-1.714-1.028a11.939 11.939 0 0 1-4.157 4.157l1.028 1.714zm4.851-4.855c1.211-2.086 1.822-4.321 1.822-6.69h-2c0 2.007-.513 3.897-1.552 5.686l1.73 1.004zm1.822-6.69v-10.968h-2v10.968h2zm0-10.968c0-2.369-.611-4.604-1.822-6.69l-1.73 1.004c1.039 1.789 1.552 3.679 1.552 5.686h2zm-1.804-6.657c-1.135-2.137-2.679-3.885-4.628-5.229l-1.135 1.646c1.676 1.157 3.007 2.659 3.997 4.521l1.766-.938zm-4.628-5.229c-1.983-1.368-4.213-2.052-6.661-2.052v2c2.052 0 3.884.566 5.526 1.698l1.135-1.646zm-6.661-2.052c-2.543 0-4.695.638-6.356 2.011l1.274 1.541c1.214-1.002 2.874-1.552 5.082-1.552v-2zm-6.335 1.994c-1.584 1.239-2.778 2.852-3.589 4.811l1.848.765c.689-1.665 1.682-2.99 2.973-4.001l-1.232-1.575zm-3.6 4.839c-.718 1.893-1.205 3.91-1.464 6.047l1.985.241c.241-1.988.692-3.847 1.349-5.579l-1.87-.709zm-1.464 6.047a49.474 49.474 0 0 0-.382 5.933h2a47.4 47.4 0 0 1 .367-5.692l-1.985-.241zm-.382 5.933c0 1.785.095 3.752.285 5.9l1.992-.176a65.359 65.359 0 0 1-.277-5.724h-2zm.288 5.929a28.853 28.853 0 0 0 1.457 6.311l1.884-.668a26.98 26.98 0 0 1-1.355-5.877l-1.986.234zm1.466 6.338c.8 2.065 1.945 3.794 3.448 5.16l1.345-1.48c-1.247-1.133-2.227-2.592-2.927-4.402l-1.866.722zm3.484 5.191c1.661 1.372 3.813 2.011 6.355 2.011v-2c-2.207 0-3.868-.55-5.082-1.553l-1.273 1.542z"/><path d="m134.406 418.969-.832.554.022.033.024.031.786-.618zm-1.312-3.375-.986.167.002.01.001.01.983-.187zm-7.125-42 .986-.168-.007-.037-.009-.038-.97.243zm5.812-3.75-.808.588.016.023.018.022.774-.633zm1.125 2.625.987-.162-.002-.012-.985.174zm5.344 32.625-.987.161 1.975-.007-.988-.154zm4.875-31.219-.985-.171-.002.008-.001.009.988.154zm1.406-3.563-.8-.6-.006.009.806.591zm6.938 0-.824.567.008.013.009.012.807-.592zm1.406 3.563.988-.151-.001-.01-.002-.01-.985.171zm4.781 31.219-.988.151 1.975.011-.987-.162zM163 372.562l-.985-.173-.002.011.987.162zm1.031-2.624.809.588.012-.017.011-.017-.832-.554zm5.907 3.656-.949-.316-.025.073-.012.076.986.167zm-7.126 42.094.983.187.002-.01.001-.011-.986-.166zm-1.406 3.281-.786-.618-.014.018-.013.019.813.581zm-6.281 0-.806.591.022.031.025.029.759-.651zm-1.313-3.281.99-.149-.002-.011-.988.16zM148 379.781l.987-.16h-1.974l.987.16zm-5.812 35.813.982.187.002-.014.003-.013-.987-.16zm-1.407 3.375.787.618.01-.013.01-.014-.807-.591zm-3.187.312c-1.228 0-1.956-.364-2.401-.93l-1.573 1.236c.93 1.183 2.327 1.694 3.974 1.694v-2zm-2.356-.867c-.538-.808-.932-1.802-1.162-3.007l-1.965.374c.271 1.42.752 2.675 1.463 3.742l1.664-1.109zm-1.158-2.988-7.125-42-1.972.335 7.125 42 1.972-.335zm-7.141-42.075a2.09 2.09 0 0 1-.064-.507h-2c0 .334.042.665.124.992l1.94-.485zm-.064-.507V372.094h-2V372.844h2zm0-.75c0-.925.242-1.439.554-1.735.323-.305.899-.547 1.915-.547v-2c-1.297 0-2.456.306-3.289 1.094-.844.798-1.18 1.925-1.18 3.188h2zm2.469-2.282c.918 0 1.375.271 1.629.62l1.617-1.176c-.746-1.026-1.914-1.444-3.246-1.444v2zm1.663.665c.433.529.75 1.236.914 2.166l1.97-.348c-.211-1.195-.644-2.239-1.336-3.084l-1.548 1.266zm.912 2.153 5.344 32.625 1.974-.323-5.344-32.625-1.974.323zm7.319 32.618 4.875-31.219-1.976-.308-4.875 31.218 1.976.309zm4.872-31.202c.23-1.323.652-2.357 1.228-3.142l-1.613-1.183c-.799 1.09-1.315 2.431-1.585 3.983l1.97.342zm1.221-3.134c.515-.685 1.334-1.1 2.669-1.1v-2c-1.79 0-3.283.586-4.269 1.901l1.6 1.199zm2.669-1.1c1.419 0 2.204.426 2.645 1.067l1.648-1.133c-.934-1.359-2.462-1.934-4.293-1.934v2zm2.662 1.092c.576.785.998 1.819 1.228 3.142l1.97-.342c-.27-1.552-.786-2.893-1.585-3.983l-1.613 1.183zm1.225 3.122 4.781 31.219 1.977-.303-4.782-31.218-1.976.302zm6.756 31.23 5.344-32.531-1.974-.325-5.344 32.532 1.974.324zm5.342-32.52c.168-.952.465-1.674.855-2.21l-1.617-1.177c-.611.839-1.001 1.867-1.208 3.04l1.97.347zm.878-2.244c.258-.386.728-.68 1.699-.68v-2c-1.403 0-2.62.457-3.363 1.571l1.664 1.109zm1.699-.68c1.009 0 1.581.246 1.905.561.318.31.564.851.564 1.815h2c0-1.287-.332-2.433-1.17-3.248-.832-.811-1.995-1.128-3.299-1.128v2zm2.469 2.376V372.938h2V372.188h-2zm0 .75c0 .169-.021.277-.042.34l1.897.632a3.07 3.07 0 0 0 .145-.972h-2zm-.079.489-7.125 42.094 1.971.333 7.125-42.093-1.971-.334zM161.83 415.5c-.226 1.187-.639 2.125-1.21 2.851l1.573 1.236c.804-1.024 1.328-2.274 1.602-3.712l-1.965-.375zm-1.237 2.888c-.378.528-1.047.893-2.281.893v2c1.642 0 3.035-.509 3.908-1.731l-1.627-1.162zm-2.281.893c-1.145 0-1.905-.353-2.428-.963l-1.518 1.302c.977 1.139 2.342 1.661 3.946 1.661v-2zm-2.381-.904c-.583-.795-.964-1.734-1.13-2.838l-1.977.297c.209 1.396.703 2.645 1.495 3.724l1.612-1.183zm-1.131-2.849-5.813-35.907-1.974.32 5.812 35.906 1.975-.319zm-7.787-35.907-5.813 35.813 1.975.32 5.812-35.813-1.974-.32zm-5.808 35.786c-.226 1.188-.643 2.17-1.23 2.97l1.613 1.183c.787-1.074 1.308-2.342 1.582-3.779l-1.965-.374zm-1.21 2.944c-.445.566-1.173.93-2.401.93v2c1.647 0 3.044-.511 3.974-1.694l-1.573-1.236zm60.317-69.789-.725.689.009.01.009.009.707-.708zm-7.874 70.219-.848.53.011.019.012.018.825-.567zm0-47.906-.84-.543-.004.006-.004.007.848.53zm6.843 0-.862.507.018.03.02.03.824-.567zm0 47.906-.824-.566-.012.018-.012.018.848.53zM196 357.875c-1.877 0-3.101-.469-3.863-1.231-.762-.761-1.231-1.986-1.231-3.863h-2c0 2.186.547 4.008 1.817 5.278 1.269 1.269 3.092 1.816 5.277 1.816v-2zm-5.094-5.094c0-1.873.475-3.095 1.249-3.858.777-.765 2.027-1.235 3.939-1.235v-2c-2.213 0-4.057.545-5.343 1.81-1.288 1.269-1.845 3.094-1.845 5.283h2zm5.188-5.093c1.332 0 2.482.498 3.493 1.563l1.451-1.377c-1.364-1.435-3.027-2.186-4.944-2.186v2zm3.511 1.582c1.007 1.007 1.489 2.161 1.489 3.511h2c0-1.9-.706-3.558-2.074-4.926l-1.415 1.415zm1.489 3.511c0 1.877-.469 3.102-1.231 3.863-.762.762-1.986 1.231-3.863 1.231v2c2.185 0 4.008-.547 5.277-1.816 1.27-1.27 1.817-3.092 1.817-5.278h-2zm-5.188 66.5c-1.418 0-2.204-.425-2.644-1.066l-1.649 1.133c.935 1.359 2.462 1.933 4.293 1.933v-2zm-2.621-1.03c-.501-.803-.785-1.857-.785-3.22h-2c0 1.637.341 3.083 1.09 4.28l1.695-1.06zm-.785-3.22v-40.406h-2v40.406h2zm0-40.406c0-1.363.284-2.417.785-3.22l-1.695-1.06c-.749 1.197-1.09 2.643-1.09 4.28h2zm.777-3.207c.451-.697 1.235-1.137 2.629-1.137v-2c-1.855 0-3.384.623-4.308 2.051l1.679 1.086zm2.629-1.137c1.399 0 2.125.44 2.513 1.101l1.724-1.014c-.861-1.464-2.386-2.087-4.237-2.087v2zm2.551 1.161c.549.797.855 1.837.855 3.183h2c0-1.654-.38-3.114-1.207-4.317l-1.648 1.134zm.855 3.183v40.406h2v-40.406h-2zm0 40.406c0 1.346-.306 2.386-.855 3.184l1.648 1.133c.827-1.203 1.207-2.663 1.207-4.317h-2zm-.879 3.22c-.377.603-1.102 1.03-2.527 1.03v2c1.826 0 3.35-.573 4.223-1.97l-1.696-1.06zm26.629-7.345-.88-.474-.007.013-.007.014.894.447zm1.407-2.156-.773-.634-.008.009.781.625zm25.312-30.844.773.635 1.342-1.635h-2.115v1zm-25.312-.844-.541.842.013.008.013.008.515-.858zm0-6-.515-.857-.013.008-.013.008.541.841zm33.937.282-.496.868.009.005.008.005.479-.878zm1.5 6.656.878.479.009-.016.008-.016-.895-.447zm-1.312 1.969.773.634.008-.01-.781-.624zm-25.688 31.312-.773-.634-1.341 1.634h2.114v-1zm27.188.844-.541.841.013.009.013.007.515-.857zm0 6-.515-.857-.013.007-.013.009.541.841zm-30.75-.156c-1.799 0-3.23-.377-4.349-1.069l-1.053 1.7c1.507.933 3.325 1.369 5.402 1.369v-2zm-4.349-1.069c-.913-.565-1.495-1.633-1.495-3.556h-2c0 2.326.73 4.196 2.442 5.256l1.053-1.7zm-1.495-3.556c0-.727.154-1.385.457-1.991l-1.789-.894a6.379 6.379 0 0 0-.668 2.885h2zm.443-1.964c.413-.767.849-1.434 1.307-2.005l-1.562-1.25a15.29 15.29 0 0 0-1.506 2.307l1.761.948zm1.299-1.996 25.312-30.843-1.546-1.269-25.312 30.844 1.546 1.268zm24.539-32.478h-21.937v2h21.937v-2zm-21.937 0c-1.168 0-2.107-.249-2.861-.701l-1.029 1.715c1.122.673 2.433.986 3.89.986v-2zm-2.834-.685c-.487-.312-.854-.918-.854-2.159h-2c0 1.635.508 3.029 1.772 3.842l1.082-1.683zm-.854-2.159c0-1.24.367-1.846.854-2.158l-1.082-1.683c-1.264.813-1.772 2.207-1.772 3.841h2zm.827-2.142c.754-.452 1.693-.701 2.861-.701v-2c-1.457 0-2.768.313-3.89.986l1.029 1.715zm2.861-.701h25.781v-2h-25.781v2zm25.781 0c1.742 0 3.156.348 4.285.993l.992-1.736c-1.495-.855-3.269-1.257-5.277-1.257v2zm4.302 1.003c.942.513 1.542 1.526 1.542 3.434h2c0-2.341-.775-4.203-2.584-5.19l-.958 1.756zm1.542 3.434a4.18 4.18 0 0 1-.457 1.897l1.789.894a6.177 6.177 0 0 0 .668-2.791h-2zm-.441 1.865a12.455 12.455 0 0 1-1.215 1.823l1.562 1.249a14.446 14.446 0 0 0 1.409-2.114l-1.756-.958zm-1.207 1.814-25.688 31.312 1.546 1.268 25.688-31.312-1.546-1.268zm-24.915 32.946h23.906v-2h-23.906v2zm23.906 0c1.171 0 2.065.25 2.741.685l1.082-1.682c-1.074-.69-2.368-1.003-3.823-1.003v2zm2.767.701c.543.326.921.931.921 2.143h2c0-1.663-.559-3.058-1.892-3.857l-1.029 1.714zm.921 2.143c0 1.212-.378 1.817-.921 2.143l1.029 1.714c1.333-.799 1.892-2.194 1.892-3.857h-2zm-.947 2.159c-.676.435-1.57.685-2.741.685v2c1.455 0 2.749-.313 3.823-1.003l-1.082-1.682zm-2.741.685h-27.468v2h27.468v-2zm17.157-1.25-.621.784.008.006.613-.79zm-2.438-18.938.847.532.007-.01-.854-.522zm13.125-7.969.201.98.008-.001.008-.002-.217-.977zm8.532-1.124.043.999.01-.001.01-.001-.063-.997zm8.156-.376.025 1 .975-.024v-.976h-1zm-3.469-10.5-.546.838.013.009.013.008.52-.855zm-15.563 3-.825-.564-.007.01.832.554zm-2.437 3-.707-.707-.013.013-.013.014.733.68zm-6.75.469-.61.793.034.026.035.022.541-.841zm-.469-6 .883.471.006-.012.006-.012-.895-.447zm1.688-2.719-.789-.615-.004.006.793.609zm7.312-5.25.31.951.01-.003.009-.003-.329-.945zm18.75.188-.371.928.012.005.013.005.346-.938zm6.75 5.25-.832.555.008.012.009.012.815-.579zm-5.812 36.75h1v-2.566l-1.737 1.889.737.677zm-7.313 5.625-.463-.886-.008.004.471.882zm-2.625-6.094.355.935.008-.003.009-.003-.372-.929zm5.063-3 .64.769.011-.009-.651-.76zm3.093-3.093.742.67.008-.008.007-.009-.757-.653zm1.782-11.25h1v-1.041l-1.04.041.04 1zm-5.344.281.031.999h.016l.015-.001-.062-.998zm-6.188.656.15.989.012-.002.012-.002-.174-.985zM286 397.312l.382.925.014-.006.013-.006-.409-.913zm-4.406 3.282-.788-.617-.004.005.792.612zm.375 10.781-.651.759.009.008.009.007.633-.774zm5.156 7.906c-4.183 0-7.679-1.131-10.543-3.352l-1.226 1.58c3.26 2.528 7.202 3.772 11.769 3.772v-2zm-10.536-3.346c-2.709-2.146-4.12-5.326-4.12-9.716h-2c0 4.859 1.589 8.679 4.879 11.284l1.241-1.568zm-4.12-9.716c0-3.31.662-5.922 1.909-7.906l-1.693-1.064c-1.504 2.392-2.216 5.405-2.216 8.97h2zm1.916-7.916a13.396 13.396 0 0 1 5.153-4.892l-.951-1.759a15.402 15.402 0 0 0-5.909 5.608l1.707 1.043zm5.153-4.892c2.221-1.2 4.658-2.075 7.319-2.619l-.401-1.959c-2.84.581-5.465 1.519-7.869 2.819l.951 1.759zm7.335-2.622a47.975 47.975 0 0 1 8.358-1.102l-.087-1.999a50.203 50.203 0 0 0-8.705 1.148l.434 1.953zm8.378-1.104c2.927-.186 5.633-.311 8.118-.373l-.05-1.999c-2.515.063-5.247.188-8.195.377l.127 1.995zm9.093-1.373c0-2.673-.222-4.948-.686-6.805l-1.941.486c.411 1.643.627 3.743.627 6.319h2zm-.686-6.805c-.497-1.984-1.584-3.526-3.263-4.549l-1.04 1.709c1.196.727 1.984 1.81 2.362 3.326l1.941-.486zm-3.237-4.532c-1.681-1.097-4.136-1.569-7.202-1.569v2c2.933 0 4.916.466 6.11 1.244l1.092-1.675zm-7.202-1.569c-2.592 0-4.727.449-6.274 1.481l1.11 1.664c1.078-.719 2.755-1.145 5.164-1.145v-2zm-6.274 1.481c-1.408.939-2.566 2.058-3.458 3.361l1.651 1.129c.733-1.072 1.7-2.015 2.917-2.826l-1.11-1.664zm-3.465 3.371a18.555 18.555 0 0 1-2.312 2.847l1.414 1.415a20.636 20.636 0 0 0 2.563-3.153l-1.665-1.109zm-2.338 2.874c-.569.613-1.455.993-2.83.993v2c1.751 0 3.24-.495 4.296-1.632l-1.466-1.361zm-2.83.993c-1.097 0-1.963-.245-2.646-.685l-1.082 1.682c1.067.686 2.326 1.003 3.728 1.003v-2zm-2.577-.636c-.488-.376-.829-1.029-.829-2.208h-2c0 1.572.472 2.918 1.609 3.793l1.22-1.585zm-.829-2.208c0-.898.21-1.736.633-2.529l-1.765-.941a7.283 7.283 0 0 0-.868 3.47h2zm.645-2.553a15.78 15.78 0 0 1 1.585-2.556l-1.585-1.219a17.67 17.67 0 0 0-1.789 2.881l1.789.894zm1.581-2.55c1.887-2.418 4.163-4.044 6.834-4.915l-.62-1.901c-3.078 1.004-5.678 2.878-7.791 5.585l1.577 1.231zm6.853-4.921a26.202 26.202 0 0 1 8.671-1.445v-2c-3.234 0-6.345.518-9.328 1.556l.657 1.889zm8.671-1.445c3.587 0 6.707.548 9.379 1.616l.743-1.856c-2.954-1.182-6.334-1.76-10.122-1.76v2zm9.404 1.626c2.686.993 4.762 2.614 6.264 4.867l1.664-1.11c-1.748-2.622-4.172-4.501-7.235-5.633l-.693 1.876zm6.281 4.891c1.53 2.153 2.347 5.115 2.347 8.983h2c0-4.131-.871-7.544-2.717-10.141l-1.63 1.158zm2.347 8.983v30.75h2v-30.75h-2zm0 30.75c0 1.253-.313 2.008-.762 2.457-.45.45-1.205.762-2.457.762v2c1.56 0 2.914-.391 3.871-1.347.957-.957 1.348-2.311 1.348-3.872h-2zm-3.219 3.219c-1.511 0-2.179-.383-2.459-.788l-1.645 1.139c.845 1.22 2.364 1.649 4.104 1.649v-2zm-2.459-.788c-.425-.614-.666-1.405-.666-2.431h-2c0 1.35.321 2.559 1.021 3.57l1.645-1.139zm-.666-2.431V412.5h-2V416.062h2zm-1.737-4.239a25.599 25.599 0 0 1-7.039 5.416l.927 1.772a27.602 27.602 0 0 0 7.585-5.834l-1.473-1.354zm-7.047 5.42c-2.533 1.355-5.338 2.038-8.435 2.038v2c3.403 0 6.536-.754 9.378-2.274l-.943-1.764zm-7.872-3.181c2.117 0 4.143-.364 6.073-1.096l-.709-1.87a14.996 14.996 0 0 1-5.364.966v2zm6.09-1.102a19.685 19.685 0 0 0 5.331-3.161l-1.28-1.536a17.704 17.704 0 0 1-4.794 2.84l.743 1.857zm5.342-3.169c.919-.788 1.981-1.853 3.184-3.183l-1.483-1.341c-1.172 1.295-2.172 2.293-3.003 3.005l1.302 1.519zm3.199-3.2c1.285-1.487 2.025-3.054 2.025-4.685h-2c0 .994-.448 2.115-1.538 3.378l1.513 1.307zm2.025-4.685v-7.218h-2v7.218h2zm-1.04-8.218c-1.572.063-3.361.157-5.366.283l.124 1.996c1.995-.125 3.768-.218 5.322-.28l-.08-1.999zm-5.335.281a44.472 44.472 0 0 0-6.33.671l.347 1.97a42.348 42.348 0 0 1 6.045-.642l-.062-1.999zm-6.306.667a23.338 23.338 0 0 0-6.072 1.764l.818 1.825a21.275 21.275 0 0 1 5.553-1.611l-.299-1.978zm-6.045 1.752c-1.96.811-3.573 2.006-4.812 3.589l1.575 1.233c1.011-1.292 2.336-2.284 4.001-2.973l-.764-1.849zm-4.816 3.594c-1.229 1.591-1.802 3.605-1.802 5.956h2c0-2.025.49-3.574 1.385-4.733l-1.583-1.223zM279 405.938c0 2.658.699 4.809 2.318 6.196l1.302-1.518c-1.007-.863-1.62-2.337-1.62-4.678h-2zm2.336 6.211c1.61 1.317 3.768 1.913 6.352 1.913v-2c-2.292 0-3.946-.528-5.086-1.461l-1.266 1.548zm47.226-41.837.833.555.008-.012.007-.013-.848-.53zm7.594 6.938h-1v2.897l1.787-2.28-.787-.617zm6.188-5.906.575.818.004-.003-.579-.815zm11.344-1.594-.641.768.015.013.016.012.61-.793zm-.657 6.562-.447-.894-.009.005-.01.005.466.884zm-3.937 1.219-.13-.991h-.002l.132.991zm-10.875 5.813.75.66.007-.007.006-.007-.763-.646zm-3 35.531.832.555.008-.013.008-.012-.848-.53zm-3.375.406c-1.344 0-2.049-.415-2.434-1.03l-1.695 1.06c.865 1.386 2.347 1.97 4.129 1.97v-2zm-2.434-1.03c-.505-.809-.785-1.835-.785-3.126h-2c0 1.584.345 2.996 1.09 4.186l1.695-1.06zm-.785-3.126v-41.156h-2v41.156h2zm0-41.156c0-1.367.285-2.375.77-3.102l-1.665-1.109c-.765 1.148-1.105 2.577-1.105 4.211h2zm.785-3.127c.377-.603 1.103-1.03 2.528-1.03v-2c-1.826 0-3.35.574-4.223 1.971l1.695 1.059zm2.528-1.03c1.539 0 2.22.426 2.517.921l1.715-1.029c-.828-1.379-2.397-1.892-4.232-1.892v2zm2.517.921c.452.754.701 1.693.701 2.861h2c0-1.457-.313-2.768-.986-3.89l-1.715 1.029zm.701 2.861V377.25h2V373.594h-2zm1.787 4.273c1.755-2.239 3.747-4.139 5.976-5.705l-1.15-1.636c-2.396 1.683-4.529 3.721-6.4 6.107l1.574 1.234zm5.98-5.708c2.197-1.561 4.711-2.347 7.577-2.347v-2c-3.259 0-6.182.902-8.735 2.717l1.158 1.63zm7.577-2.347c1.235 0 2.038.282 2.547.706l1.281-1.536c-.991-.826-2.313-1.17-3.828-1.17v2zm2.578.731c.477.367.828 1.041.828 2.301h2c0-1.616-.461-3.004-1.609-3.887l-1.219 1.586zm.828 2.301c0 .723-.134 1.261-.348 1.657-.209.386-.52.69-.974.917l.894 1.789c.797-.398 1.423-.984 1.839-1.755.411-.76.589-1.644.589-2.608h-2zm-1.341 2.584c-1.074.565-2.271.938-3.601 1.112l.259 1.983c1.546-.202 2.973-.641 4.274-1.326l-.932-1.769zm-3.603 1.112c-2.003.267-4.047.931-6.128 1.972l.894 1.789c1.919-.96 3.75-1.546 5.498-1.779l-.264-1.982zm-6.128 1.972c-2.115 1.057-3.912 2.452-5.379 4.186l1.527 1.292c1.283-1.517 2.861-2.747 4.746-3.689l-.894-1.789zm-5.366 4.171c-1.544 1.755-2.312 3.869-2.312 6.286h2c0-1.958.608-3.595 1.813-4.965l-1.501-1.321zm-2.312 6.286v26.156h2v-26.156h-2zm0 26.156c0 1.363-.283 2.417-.785 3.22l1.696 1.06c.748-1.197 1.089-2.643 1.089-4.28h-2zm-.769 3.195c-.366.549-1.094.961-2.543.961v2c1.8 0 3.323-.525 4.207-1.851l-1.664-1.11zm42.269-.382-.575.818.013.008.013.009.549-.835zm.375-46.782.544.839.006-.003-.55-.836zm16.313-.187-.549.835.013.009.014.009.522-.853zm5.718 5.625-.835.549 1.835 2.79v-3.339h-1zm.938-28.313.832.555.008-.012.008-.013-.848-.53zm6.656 0-.871.491.011.02.012.019.848-.53zm-6.75 70.875-.8.6.016.021.016.019.768-.64zm-.844-6.375h1v-3.339l-1.835 2.79.835.549zM392.875 411l-.514-.857-.007.003-.006.004.527.85zm4.5-4.5.857.514.004-.006.004-.006-.865-.502zm0-23.344-.883.469.009.017.009.016.865-.502zm-16.125-4.968.616.787.011-.008.01-.009-.637-.77zm-3.281 4.406-.924-.383-.006.014-.005.014.935.355zm-1.5 17.437-.996.088.001.015.002.014.993-.117zm1.406 6.094-.942.334.004.014.005.013.933-.361zm3.187 4.781-.672.74.017.016.019.015.636-.771zm4.5 8.375c-3.416 0-6.181-.748-8.356-2.179l-1.099 1.671c2.575 1.694 5.747 2.508 9.455 2.508v-2zm-8.331-2.162c-2.176-1.529-3.915-3.53-5.22-6.021l-1.772.929c1.445 2.759 3.393 5.008 5.842 6.729l1.15-1.637zm-5.22-6.021c-1.326-2.531-2.263-5.279-2.809-8.247l-1.967.361c.58 3.156 1.58 6.096 3.004 8.815l1.772-.929zm-2.809-8.247a48.786 48.786 0 0 1-.827-8.82h-2c0 3.002.287 6.062.86 9.181l1.967-.361zm-.827-8.82c0-2.802.305-5.638.916-8.51l-1.957-.417a42.8 42.8 0 0 0-.959 8.927h2zm.916-8.51c.604-2.84 1.599-5.46 2.982-7.866l-1.734-.997c-1.491 2.594-2.559 5.411-3.205 8.446l1.957.417zm2.982-7.866c1.362-2.369 3.129-4.25 5.302-5.66l-1.088-1.678c-2.452 1.591-4.435 3.71-5.948 6.341l1.734.997zm5.308-5.663c2.183-1.437 4.858-2.18 8.075-2.18v-2c-3.533 0-6.608.82-9.174 2.509l1.099 1.671zm8.075-2.18c2.767 0 5.134.675 7.139 1.992l1.098-1.671c-2.37-1.557-5.129-2.321-8.237-2.321v2zm7.166 2.01c2.115 1.292 3.917 3.06 5.405 5.321l1.671-1.099c-1.637-2.488-3.647-4.471-6.033-5.929l-1.043 1.707zm7.24 4.772v-24.656h-2v24.656h2zm0-24.656c0-1.367.285-2.375.77-3.102l-1.664-1.109c-.765 1.148-1.106 2.577-1.106 4.211h2zm.786-3.127c.377-.603 1.102-1.03 2.527-1.03v-2c-1.825 0-3.35.573-4.223 1.97l1.696 1.06zm2.527-1.03c1.432 0 2.094.429 2.41.991l1.743-.981c-.809-1.438-2.335-2.01-4.153-2.01v2zm2.433 1.03c.506.81.786 1.835.786 3.127h2c0-1.584-.346-2.996-1.09-4.187l-1.696 1.06zm.786 3.127v64.031h2v-64.031h-2zm0 64.031c0 1.283-.32 2.062-.785 2.527-.466.465-1.244.785-2.528.785v2c1.592 0 2.969-.398 3.942-1.371.972-.972 1.371-2.35 1.371-3.941h-2zm-3.313 3.312c-1.52 0-2.267-.358-2.607-.765l-1.536 1.28c.911 1.093 2.414 1.485 4.143 1.485v-2zm-2.575-.725c-.408-.544-.644-1.259-.644-2.212h-2c0 1.297.328 2.457 1.044 3.412l1.6-1.2zm-.644-2.212V412.781h-2V416.344h2zm-1.835-4.112c-1.486 2.258-3.282 3.989-5.387 5.217l1.008 1.727c2.395-1.397 4.411-3.353 6.05-5.845l-1.671-1.099zm-5.387 5.217c-2.078 1.212-4.494 1.832-7.278 1.832v2c3.092 0 5.864-.692 8.286-2.105l-1.008-1.727zm-6.059-3.761c2.426 0 4.642-.61 6.621-1.838l-1.054-1.7c-1.646 1.022-3.492 1.538-5.567 1.538v2zm6.608-1.831a13.915 13.915 0 0 0 4.843-4.843l-1.714-1.028a11.939 11.939 0 0 1-4.157 4.157l1.028 1.714zm4.851-4.855c1.211-2.086 1.822-4.321 1.822-6.69h-2c0 2.007-.513 3.897-1.552 5.686l1.73 1.004zm1.822-6.69v-10.968h-2v10.968h2zm0-10.968c0-2.369-.611-4.604-1.822-6.69l-1.73 1.004c1.039 1.789 1.552 3.679 1.552 5.686h2zm-1.804-6.657c-1.135-2.137-2.679-3.885-4.628-5.229l-1.135 1.646c1.676 1.157 3.007 2.659 3.997 4.521l1.766-.938zm-4.628-5.229c-1.983-1.368-4.213-2.052-6.661-2.052v2c2.052 0 3.884.566 5.526 1.698l1.135-1.646zm-6.661-2.052c-2.543 0-4.695.638-6.356 2.011l1.274 1.541c1.214-1.002 2.874-1.552 5.082-1.552v-2zm-6.335 1.994c-1.584 1.239-2.778 2.852-3.589 4.811l1.848.765c.689-1.665 1.682-2.99 2.973-4.001l-1.232-1.575zm-3.6 4.839c-.718 1.893-1.205 3.91-1.464 6.047l1.985.241c.241-1.988.692-3.847 1.349-5.579l-1.87-.709zm-1.464 6.047a49.474 49.474 0 0 0-.382 5.933h2a47.4 47.4 0 0 1 .367-5.692l-1.985-.241zm-.382 5.933c0 1.785.095 3.752.285 5.9l1.992-.176a65.359 65.359 0 0 1-.277-5.724h-2zm.288 5.929a28.853 28.853 0 0 0 1.457 6.311l1.884-.668a26.98 26.98 0 0 1-1.355-5.877l-1.986.234zm1.466 6.338c.8 2.065 1.945 3.794 3.448 5.16l1.345-1.48c-1.247-1.133-2.227-2.592-2.927-4.402l-1.866.722zm3.484 5.191c1.661 1.372 3.813 2.011 6.355 2.011v-2c-2.207 0-3.868-.55-5.082-1.553l-1.273 1.542z"/><path d="m134.406 424.969-.832.554.022.033.024.031.786-.618zm-1.312-3.375-.986.167.002.01.001.01.983-.187zm-7.125-42 .986-.168-.007-.037-.009-.038-.97.243zm5.812-3.75-.808.588.016.023.018.022.774-.633zm1.125 2.625.987-.162-.002-.012-.985.174zm5.344 32.625-.987.161 1.975-.007-.988-.154zm4.875-31.219-.985-.171-.002.008-.001.009.988.154zm1.406-3.563-.8-.6-.006.009.806.591zm6.938 0-.824.567.008.013.009.012.807-.592zm1.406 3.563.988-.151-.001-.01-.002-.01-.985.171zm4.781 31.219-.988.151 1.975.011-.987-.162zM163 378.562l-.985-.173-.002.011.987.162zm1.031-2.624.809.588.012-.017.011-.017-.832-.554zm5.907 3.656-.949-.316-.025.073-.012.076.986.167zm-7.126 42.094.983.187.002-.01.001-.011-.986-.166zm-1.406 3.281-.786-.618-.014.018-.013.019.813.581zm-6.281 0-.806.591.022.031.025.029.759-.651zm-1.313-3.281.99-.149-.002-.011-.988.16zM148 385.781l.987-.16h-1.974l.987.16zm-5.812 35.813.982.187.002-.014.003-.013-.987-.16zm-1.407 3.375.787.618.01-.013.01-.014-.807-.591zm-3.187.312c-1.228 0-1.956-.364-2.401-.93l-1.573 1.236c.93 1.183 2.327 1.694 3.974 1.694v-2zm-2.356-.867c-.538-.808-.932-1.802-1.162-3.007l-1.965.374c.271 1.42.752 2.675 1.463 3.742l1.664-1.109zm-1.158-2.988-7.125-42-1.972.335 7.125 42 1.972-.335zm-7.141-42.075a2.09 2.09 0 0 1-.064-.507h-2c0 .334.042.665.124.992l1.94-.485zm-.064-.507V378.094h-2V378.844h2zm0-.75c0-.925.242-1.439.554-1.735.323-.305.899-.547 1.915-.547v-2c-1.297 0-2.456.306-3.289 1.094-.844.798-1.18 1.925-1.18 3.188h2zm2.469-2.282c.918 0 1.375.271 1.629.62l1.617-1.176c-.746-1.026-1.914-1.444-3.246-1.444v2zm1.663.665c.433.529.75 1.236.914 2.166l1.97-.348c-.211-1.195-.644-2.239-1.336-3.084l-1.548 1.266zm.912 2.153 5.344 32.625 1.974-.323-5.344-32.625-1.974.323zm7.319 32.618 4.875-31.219-1.976-.308-4.875 31.218 1.976.309zm4.872-31.202c.23-1.323.652-2.357 1.228-3.142l-1.613-1.183c-.799 1.09-1.315 2.431-1.585 3.983l1.97.342zm1.221-3.134c.515-.685 1.334-1.1 2.669-1.1v-2c-1.79 0-3.283.586-4.269 1.901l1.6 1.199zm2.669-1.1c1.419 0 2.204.426 2.645 1.067l1.648-1.133c-.934-1.359-2.462-1.934-4.293-1.934v2zm2.662 1.092c.576.785.998 1.819 1.228 3.142l1.97-.342c-.27-1.552-.786-2.893-1.585-3.983l-1.613 1.183zm1.225 3.122 4.781 31.219 1.977-.303-4.782-31.218-1.976.302zm6.756 31.23 5.344-32.531-1.974-.325-5.344 32.532 1.974.324zm5.342-32.52c.168-.952.465-1.674.855-2.21l-1.617-1.177c-.611.839-1.001 1.867-1.208 3.04l1.97.347zm.878-2.244c.258-.386.728-.68 1.699-.68v-2c-1.403 0-2.62.457-3.363 1.571l1.664 1.109zm1.699-.68c1.009 0 1.581.246 1.905.561.318.31.564.851.564 1.815h2c0-1.287-.332-2.433-1.17-3.248-.832-.811-1.995-1.128-3.299-1.128v2zm2.469 2.376V378.938h2V378.188h-2zm0 .75c0 .169-.021.277-.042.34l1.897.632a3.07 3.07 0 0 0 .145-.972h-2zm-.079.489-7.125 42.094 1.971.333 7.125-42.093-1.971-.334zM161.83 421.5c-.226 1.187-.639 2.125-1.21 2.851l1.573 1.236c.804-1.024 1.328-2.274 1.602-3.712l-1.965-.375zm-1.237 2.888c-.378.528-1.047.893-2.281.893v2c1.642 0 3.035-.509 3.908-1.731l-1.627-1.162zm-2.281.893c-1.145 0-1.905-.353-2.428-.963l-1.518 1.302c.977 1.139 2.342 1.661 3.946 1.661v-2zm-2.381-.904c-.583-.795-.964-1.734-1.13-2.838l-1.977.297c.209 1.396.703 2.645 1.495 3.724l1.612-1.183zm-1.131-2.849-5.813-35.907-1.974.32 5.812 35.906 1.975-.319zm-7.787-35.907-5.813 35.813 1.975.32 5.812-35.813-1.974-.32zm-5.808 35.786c-.226 1.188-.643 2.17-1.23 2.97l1.613 1.183c.787-1.074 1.308-2.342 1.582-3.779l-1.965-.374zm-1.21 2.944c-.445.566-1.173.93-2.401.93v2c1.647 0 3.044-.511 3.974-1.694l-1.573-1.236zm60.317-69.789-.725.689.009.01.009.009.707-.708zm-7.874 70.219-.848.53.011.019.012.018.825-.567zm0-47.906-.84-.543-.004.006-.004.007.848.53zm6.843 0-.862.507.018.03.02.03.824-.567zm0 47.906-.824-.566-.012.018-.012.018.848.53zM196 363.875c-1.877 0-3.101-.469-3.863-1.231-.762-.761-1.231-1.986-1.231-3.863h-2c0 2.186.547 4.008 1.817 5.278 1.269 1.269 3.092 1.816 5.277 1.816v-2zm-5.094-5.094c0-1.873.475-3.095 1.249-3.858.777-.765 2.027-1.235 3.939-1.235v-2c-2.213 0-4.057.545-5.343 1.81-1.288 1.269-1.845 3.094-1.845 5.283h2zm5.188-5.093c1.332 0 2.482.498 3.493 1.563l1.451-1.377c-1.364-1.435-3.027-2.186-4.944-2.186v2zm3.511 1.582c1.007 1.007 1.489 2.161 1.489 3.511h2c0-1.9-.706-3.558-2.074-4.926l-1.415 1.415zm1.489 3.511c0 1.877-.469 3.102-1.231 3.863-.762.762-1.986 1.231-3.863 1.231v2c2.185 0 4.008-.547 5.277-1.816 1.27-1.27 1.817-3.092 1.817-5.278h-2zm-5.188 66.5c-1.418 0-2.204-.425-2.644-1.066l-1.649 1.133c.935 1.359 2.462 1.933 4.293 1.933v-2zm-2.621-1.03c-.501-.803-.785-1.857-.785-3.22h-2c0 1.637.341 3.083 1.09 4.28l1.695-1.06zm-.785-3.22v-40.406h-2v40.406h2zm0-40.406c0-1.363.284-2.417.785-3.22l-1.695-1.06c-.749 1.197-1.09 2.643-1.09 4.28h2zm.777-3.207c.451-.697 1.235-1.137 2.629-1.137v-2c-1.855 0-3.384.623-4.308 2.051l1.679 1.086zm2.629-1.137c1.399 0 2.125.44 2.513 1.101l1.724-1.014c-.861-1.464-2.386-2.087-4.237-2.087v2zm2.551 1.161c.549.797.855 1.837.855 3.183h2c0-1.654-.38-3.114-1.207-4.317l-1.648 1.134zm.855 3.183v40.406h2v-40.406h-2zm0 40.406c0 1.346-.306 2.386-.855 3.184l1.648 1.133c.827-1.203 1.207-2.663 1.207-4.317h-2zm-.879 3.22c-.377.603-1.102 1.03-2.527 1.03v2c1.826 0 3.35-.573 4.223-1.97l-1.696-1.06zm26.629-7.345-.88-.474-.007.013-.007.014.894.447zm1.407-2.156-.773-.634-.008.009.781.625zm25.312-30.844.773.635 1.342-1.635h-2.115v1zm-25.312-.844-.541.842.013.008.013.008.515-.858zm0-6-.515-.857-.013.008-.013.008.541.841zm33.937.282-.496.868.009.005.008.005.479-.878zm1.5 6.656.878.479.009-.016.008-.016-.895-.447zm-1.312 1.969.773.634.008-.01-.781-.624zm-25.688 31.312-.773-.634-1.341 1.634h2.114v-1zm27.188.844-.541.841.013.009.013.007.515-.857zm0 6-.515-.857-.013.007-.013.009.541.841zm-30.75-.156c-1.799 0-3.23-.377-4.349-1.069l-1.053 1.7c1.507.933 3.325 1.369 5.402 1.369v-2zm-4.349-1.069c-.913-.565-1.495-1.633-1.495-3.556h-2c0 2.326.73 4.196 2.442 5.256l1.053-1.7zm-1.495-3.556c0-.727.154-1.385.457-1.991l-1.789-.894a6.379 6.379 0 0 0-.668 2.885h2zm.443-1.964c.413-.767.849-1.434 1.307-2.005l-1.562-1.25a15.29 15.29 0 0 0-1.506 2.307l1.761.948zm1.299-1.996 25.312-30.843-1.546-1.269-25.312 30.844 1.546 1.268zm24.539-32.478h-21.937v2h21.937v-2zm-21.937 0c-1.168 0-2.107-.249-2.861-.701l-1.029 1.715c1.122.673 2.433.986 3.89.986v-2zm-2.834-.685c-.487-.312-.854-.918-.854-2.159h-2c0 1.635.508 3.029 1.772 3.842l1.082-1.683zm-.854-2.159c0-1.24.367-1.846.854-2.158l-1.082-1.683c-1.264.813-1.772 2.207-1.772 3.841h2zm.827-2.142c.754-.452 1.693-.701 2.861-.701v-2c-1.457 0-2.768.313-3.89.986l1.029 1.715zm2.861-.701h25.781v-2h-25.781v2zm25.781 0c1.742 0 3.156.348 4.285.993l.992-1.736c-1.495-.855-3.269-1.257-5.277-1.257v2zm4.302 1.003c.942.513 1.542 1.526 1.542 3.434h2c0-2.341-.775-4.203-2.584-5.19l-.958 1.756zm1.542 3.434a4.18 4.18 0 0 1-.457 1.897l1.789.894a6.177 6.177 0 0 0 .668-2.791h-2zm-.441 1.865a12.455 12.455 0 0 1-1.215 1.823l1.562 1.249a14.446 14.446 0 0 0 1.409-2.114l-1.756-.958zm-1.207 1.814-25.688 31.312 1.546 1.268 25.688-31.312-1.546-1.268zm-24.915 32.946h23.906v-2h-23.906v2zm23.906 0c1.171 0 2.065.25 2.741.685l1.082-1.682c-1.074-.69-2.368-1.003-3.823-1.003v2zm2.767.701c.543.326.921.931.921 2.143h2c0-1.663-.559-3.058-1.892-3.857l-1.029 1.714zm.921 2.143c0 1.212-.378 1.817-.921 2.143l1.029 1.714c1.333-.799 1.892-2.194 1.892-3.857h-2zm-.947 2.159c-.676.435-1.57.685-2.741.685v2c1.455 0 2.749-.313 3.823-1.003l-1.082-1.682zm-2.741.685h-27.468v2h27.468v-2zm17.157-1.25-.621.784.008.006.613-.79zm-2.438-18.938.847.532.007-.01-.854-.522zm13.125-7.969.201.98.008-.001.008-.002-.217-.977zm8.532-1.124.043.999.01-.001.01-.001-.063-.997zm8.156-.376.025 1 .975-.024v-.976h-1zm-3.469-10.5-.546.838.013.009.013.008.52-.855zm-15.563 3-.825-.564-.007.01.832.554zm-2.437 3-.707-.707-.013.013-.013.014.733.68zm-6.75.469-.61.793.034.026.035.022.541-.841zm-.469-6 .883.471.006-.012.006-.012-.895-.447zm1.688-2.719-.789-.615-.004.006.793.609zm7.312-5.25.31.951.01-.003.009-.003-.329-.945zm18.75.188-.371.928.012.005.013.005.346-.938zm6.75 5.25-.832.555.008.012.009.012.815-.579zm-5.812 36.75h1v-2.566l-1.737 1.889.737.677zm-7.313 5.625-.463-.886-.008.004.471.882zm-2.625-6.094.355.935.008-.003.009-.003-.372-.929zm5.063-3 .64.769.011-.009-.651-.76zm3.093-3.093.742.67.008-.008.007-.009-.757-.653zm1.782-11.25h1v-1.041l-1.04.041.04 1zm-5.344.281.031.999h.016l.015-.001-.062-.998zm-6.188.656.15.989.012-.002.012-.002-.174-.985zM286 403.312l.382.925.014-.006.013-.006-.409-.913zm-4.406 3.282-.788-.617-.004.005.792.612zm.375 10.781-.651.759.009.008.009.007.633-.774zm5.156 7.906c-4.183 0-7.679-1.131-10.543-3.352l-1.226 1.58c3.26 2.528 7.202 3.772 11.769 3.772v-2zm-10.536-3.346c-2.709-2.146-4.12-5.326-4.12-9.716h-2c0 4.859 1.589 8.679 4.879 11.284l1.241-1.568zm-4.12-9.716c0-3.31.662-5.922 1.909-7.906l-1.693-1.064c-1.504 2.392-2.216 5.405-2.216 8.97h2zm1.916-7.916a13.396 13.396 0 0 1 5.153-4.892l-.951-1.759a15.402 15.402 0 0 0-5.909 5.608l1.707 1.043zm5.153-4.892c2.221-1.2 4.658-2.075 7.319-2.619l-.401-1.959c-2.84.581-5.465 1.519-7.869 2.819l.951 1.759zm7.335-2.622a47.975 47.975 0 0 1 8.358-1.102l-.087-1.999a50.203 50.203 0 0 0-8.705 1.148l.434 1.953zm8.378-1.104c2.927-.186 5.633-.311 8.118-.373l-.05-1.999c-2.515.063-5.247.188-8.195.377l.127 1.995zm9.093-1.373c0-2.673-.222-4.948-.686-6.805l-1.941.486c.411 1.643.627 3.743.627 6.319h2zm-.686-6.805c-.497-1.984-1.584-3.526-3.263-4.549l-1.04 1.709c1.196.727 1.984 1.81 2.362 3.326l1.941-.486zm-3.237-4.532c-1.681-1.097-4.136-1.569-7.202-1.569v2c2.933 0 4.916.466 6.11 1.244l1.092-1.675zm-7.202-1.569c-2.592 0-4.727.449-6.274 1.481l1.11 1.664c1.078-.719 2.755-1.145 5.164-1.145v-2zm-6.274 1.481c-1.408.939-2.566 2.058-3.458 3.361l1.651 1.129c.733-1.072 1.7-2.015 2.917-2.826l-1.11-1.664zm-3.465 3.371a18.555 18.555 0 0 1-2.312 2.847l1.414 1.415a20.636 20.636 0 0 0 2.563-3.153l-1.665-1.109zm-2.338 2.874c-.569.613-1.455.993-2.83.993v2c1.751 0 3.24-.495 4.296-1.632l-1.466-1.361zm-2.83.993c-1.097 0-1.963-.245-2.646-.685l-1.082 1.682c1.067.686 2.326 1.003 3.728 1.003v-2zm-2.577-.636c-.488-.376-.829-1.029-.829-2.208h-2c0 1.572.472 2.918 1.609 3.793l1.22-1.585zm-.829-2.208c0-.898.21-1.736.633-2.529l-1.765-.941a7.283 7.283 0 0 0-.868 3.47h2zm.645-2.553a15.78 15.78 0 0 1 1.585-2.556l-1.585-1.219a17.67 17.67 0 0 0-1.789 2.881l1.789.894zm1.581-2.55c1.887-2.418 4.163-4.044 6.834-4.915l-.62-1.901c-3.078 1.004-5.678 2.878-7.791 5.585l1.577 1.231zm6.853-4.921a26.202 26.202 0 0 1 8.671-1.445v-2c-3.234 0-6.345.518-9.328 1.556l.657 1.889zm8.671-1.445c3.587 0 6.707.548 9.379 1.616l.743-1.856c-2.954-1.182-6.334-1.76-10.122-1.76v2zm9.404 1.626c2.686.993 4.762 2.614 6.264 4.867l1.664-1.11c-1.748-2.622-4.172-4.501-7.235-5.633l-.693 1.876zm6.281 4.891c1.53 2.153 2.347 5.115 2.347 8.983h2c0-4.131-.871-7.544-2.717-10.141l-1.63 1.158zm2.347 8.983v30.75h2v-30.75h-2zm0 30.75c0 1.253-.313 2.008-.762 2.457-.45.45-1.205.762-2.457.762v2c1.56 0 2.914-.391 3.871-1.347.957-.957 1.348-2.311 1.348-3.872h-2zm-3.219 3.219c-1.511 0-2.179-.383-2.459-.788l-1.645 1.139c.845 1.22 2.364 1.649 4.104 1.649v-2zm-2.459-.788c-.425-.614-.666-1.405-.666-2.431h-2c0 1.35.321 2.559 1.021 3.57l1.645-1.139zm-.666-2.431V418.5h-2V422.062h2zm-1.737-4.239a25.599 25.599 0 0 1-7.039 5.416l.927 1.772a27.602 27.602 0 0 0 7.585-5.834l-1.473-1.354zm-7.047 5.42c-2.533 1.355-5.338 2.038-8.435 2.038v2c3.403 0 6.536-.754 9.378-2.274l-.943-1.764zm-7.872-3.181c2.117 0 4.143-.364 6.073-1.096l-.709-1.87a14.996 14.996 0 0 1-5.364.966v2zm6.09-1.102a19.685 19.685 0 0 0 5.331-3.161l-1.28-1.536a17.704 17.704 0 0 1-4.794 2.84l.743 1.857zm5.342-3.169c.919-.788 1.981-1.853 3.184-3.183l-1.483-1.341c-1.172 1.295-2.172 2.293-3.003 3.005l1.302 1.519zm3.199-3.2c1.285-1.487 2.025-3.054 2.025-4.685h-2c0 .994-.448 2.115-1.538 3.378l1.513 1.307zm2.025-4.685v-7.218h-2v7.218h2zm-1.04-8.218c-1.572.063-3.361.157-5.366.283l.124 1.996c1.995-.125 3.768-.218 5.322-.28l-.08-1.999zm-5.335.281a44.472 44.472 0 0 0-6.33.671l.347 1.97a42.348 42.348 0 0 1 6.045-.642l-.062-1.999zm-6.306.667a23.338 23.338 0 0 0-6.072 1.764l.818 1.825a21.275 21.275 0 0 1 5.553-1.611l-.299-1.978zm-6.045 1.752c-1.96.811-3.573 2.006-4.812 3.589l1.575 1.233c1.011-1.292 2.336-2.284 4.001-2.973l-.764-1.849zm-4.816 3.594c-1.229 1.591-1.802 3.605-1.802 5.956h2c0-2.025.49-3.574 1.385-4.733l-1.583-1.223zM279 411.938c0 2.658.699 4.809 2.318 6.196l1.302-1.518c-1.007-.863-1.62-2.337-1.62-4.678h-2zm2.336 6.211c1.61 1.317 3.768 1.913 6.352 1.913v-2c-2.292 0-3.946-.528-5.086-1.461l-1.266 1.548zm47.226-41.837.833.555.008-.012.007-.013-.848-.53zm7.594 6.938h-1v2.897l1.787-2.28-.787-.617zm6.188-5.906.575.818.004-.003-.579-.815zm11.344-1.594-.641.768.015.013.016.012.61-.793zm-.657 6.562-.447-.894-.009.005-.01.005.466.884zm-3.937 1.219-.13-.991h-.002l.132.991zm-10.875 5.813.75.66.007-.007.006-.007-.763-.646zm-3 35.531.832.555.008-.013.008-.012-.848-.53zm-3.375.406c-1.344 0-2.049-.415-2.434-1.03l-1.695 1.06c.865 1.386 2.347 1.97 4.129 1.97v-2zm-2.434-1.03c-.505-.809-.785-1.835-.785-3.126h-2c0 1.584.345 2.996 1.09 4.186l1.695-1.06zm-.785-3.126v-41.156h-2v41.156h2zm0-41.156c0-1.367.285-2.375.77-3.102l-1.665-1.109c-.765 1.148-1.105 2.577-1.105 4.211h2zm.785-3.127c.377-.603 1.103-1.03 2.528-1.03v-2c-1.826 0-3.35.574-4.223 1.971l1.695 1.059zm2.528-1.03c1.539 0 2.22.426 2.517.921l1.715-1.029c-.828-1.379-2.397-1.892-4.232-1.892v2zm2.517.921c.452.754.701 1.693.701 2.861h2c0-1.457-.313-2.768-.986-3.89l-1.715 1.029zm.701 2.861V383.25h2V379.594h-2zm1.787 4.273c1.755-2.239 3.747-4.139 5.976-5.705l-1.15-1.636c-2.396 1.683-4.529 3.721-6.4 6.107l1.574 1.234zm5.98-5.708c2.197-1.561 4.711-2.347 7.577-2.347v-2c-3.259 0-6.182.902-8.735 2.717l1.158 1.63zm7.577-2.347c1.235 0 2.038.282 2.547.706l1.281-1.536c-.991-.826-2.313-1.17-3.828-1.17v2zm2.578.731c.477.367.828 1.041.828 2.301h2c0-1.616-.461-3.004-1.609-3.887l-1.219 1.586zm.828 2.301c0 .723-.134 1.261-.348 1.657-.209.386-.52.69-.974.917l.894 1.789c.797-.398 1.423-.984 1.839-1.755.411-.76.589-1.644.589-2.608h-2zm-1.341 2.584c-1.074.565-2.271.938-3.601 1.112l.259 1.983c1.546-.202 2.973-.641 4.274-1.326l-.932-1.769zm-3.603 1.112c-2.003.267-4.047.931-6.128 1.972l.894 1.789c1.919-.96 3.75-1.546 5.498-1.779l-.264-1.982zm-6.128 1.972c-2.115 1.057-3.912 2.452-5.379 4.186l1.527 1.292c1.283-1.517 2.861-2.747 4.746-3.689l-.894-1.789zm-5.366 4.171c-1.544 1.755-2.312 3.869-2.312 6.286h2c0-1.958.608-3.595 1.813-4.965l-1.501-1.321zm-2.312 6.286v26.156h2v-26.156h-2zm0 26.156c0 1.363-.283 2.417-.785 3.22l1.696 1.06c.748-1.197 1.089-2.643 1.089-4.28h-2zm-.769 3.195c-.366.549-1.094.961-2.543.961v2c1.8 0 3.323-.525 4.207-1.851l-1.664-1.11zm42.269-.382-.575.818.013.008.013.009.549-.835zm.375-46.782.544.839.006-.003-.55-.836zm16.313-.187-.549.835.013.009.014.009.522-.853zm5.718 5.625-.835.549 1.835 2.79v-3.339h-1zm.938-28.313.832.555.008-.012.008-.013-.848-.53zm6.656 0-.871.491.011.02.012.019.848-.53zm-6.75 70.875-.8.6.016.021.016.019.768-.64zm-.844-6.375h1v-3.339l-1.835 2.79.835.549zM392.875 417l-.514-.857-.007.003-.006.004.527.85zm4.5-4.5.857.514.004-.006.004-.006-.865-.502zm0-23.344-.883.469.009.017.009.016.865-.502zm-16.125-4.968.616.787.011-.008.01-.009-.637-.77zm-3.281 4.406-.924-.383-.006.014-.005.014.935.355zm-1.5 17.437-.996.088.001.015.002.014.993-.117zm1.406 6.094-.942.334.004.014.005.013.933-.361zm3.187 4.781-.672.74.017.016.019.015.636-.771zm4.5 8.375c-3.416 0-6.181-.748-8.356-2.179l-1.099 1.671c2.575 1.694 5.747 2.508 9.455 2.508v-2zm-8.331-2.162c-2.176-1.529-3.915-3.53-5.22-6.021l-1.772.929c1.445 2.759 3.393 5.008 5.842 6.729l1.15-1.637zm-5.22-6.021c-1.326-2.531-2.263-5.279-2.809-8.247l-1.967.361c.58 3.156 1.58 6.096 3.004 8.815l1.772-.929zm-2.809-8.247a48.786 48.786 0 0 1-.827-8.82h-2c0 3.002.287 6.062.86 9.181l1.967-.361zm-.827-8.82c0-2.802.305-5.638.916-8.51l-1.957-.417a42.8 42.8 0 0 0-.959 8.927h2zm.916-8.51c.604-2.84 1.599-5.46 2.982-7.866l-1.734-.997c-1.491 2.594-2.559 5.411-3.205 8.446l1.957.417zm2.982-7.866c1.362-2.369 3.129-4.25 5.302-5.66l-1.088-1.678c-2.452 1.591-4.435 3.71-5.948 6.341l1.734.997zm5.308-5.663c2.183-1.437 4.858-2.18 8.075-2.18v-2c-3.533 0-6.608.82-9.174 2.509l1.099 1.671zm8.075-2.18c2.767 0 5.134.675 7.139 1.992l1.098-1.671c-2.37-1.557-5.129-2.321-8.237-2.321v2zm7.166 2.01c2.115 1.292 3.917 3.06 5.405 5.321l1.671-1.099c-1.637-2.488-3.647-4.471-6.033-5.929l-1.043 1.707zm7.24 4.772v-24.656h-2v24.656h2zm0-24.656c0-1.367.285-2.375.77-3.102l-1.664-1.109c-.765 1.148-1.106 2.577-1.106 4.211h2zm.786-3.127c.377-.603 1.102-1.03 2.527-1.03v-2c-1.825 0-3.35.573-4.223 1.97l1.696 1.06zm2.527-1.03c1.432 0 2.094.429 2.41.991l1.743-.981c-.809-1.438-2.335-2.01-4.153-2.01v2zm2.433 1.03c.506.81.786 1.835.786 3.127h2c0-1.584-.346-2.996-1.09-4.187l-1.696 1.06zm.786 3.127v64.031h2v-64.031h-2zm0 64.031c0 1.283-.32 2.062-.785 2.527-.466.465-1.244.785-2.528.785v2c1.592 0 2.969-.398 3.942-1.371.972-.972 1.371-2.35 1.371-3.941h-2zm-3.313 3.312c-1.52 0-2.267-.358-2.607-.765l-1.536 1.28c.911 1.093 2.414 1.485 4.143 1.485v-2zm-2.575-.725c-.408-.544-.644-1.259-.644-2.212h-2c0 1.297.328 2.457 1.044 3.412l1.6-1.2zm-.644-2.212V418.781h-2V422.344h2zm-1.835-4.112c-1.486 2.258-3.282 3.989-5.387 5.217l1.008 1.727c2.395-1.397 4.411-3.353 6.05-5.845l-1.671-1.099zm-5.387 5.217c-2.078 1.212-4.494 1.832-7.278 1.832v2c3.092 0 5.864-.692 8.286-2.105l-1.008-1.727zm-6.059-3.761c2.426 0 4.642-.61 6.621-1.838l-1.054-1.7c-1.646 1.022-3.492 1.538-5.567 1.538v2zm6.608-1.831a13.915 13.915 0 0 0 4.843-4.843l-1.714-1.028a11.939 11.939 0 0 1-4.157 4.157l1.028 1.714zm4.851-4.855c1.211-2.086 1.822-4.321 1.822-6.69h-2c0 2.007-.513 3.897-1.552 5.686l1.73 1.004zm1.822-6.69v-10.968h-2v10.968h2zm0-10.968c0-2.369-.611-4.604-1.822-6.69l-1.73 1.004c1.039 1.789 1.552 3.679 1.552 5.686h2zm-1.804-6.657c-1.135-2.137-2.679-3.885-4.628-5.229l-1.135 1.646c1.676 1.157 3.007 2.659 3.997 4.521l1.766-.938zm-4.628-5.229c-1.983-1.368-4.213-2.052-6.661-2.052v2c2.052 0 3.884.566 5.526 1.698l1.135-1.646zm-6.661-2.052c-2.543 0-4.695.638-6.356 2.011l1.274 1.541c1.214-1.002 2.874-1.552 5.082-1.552v-2zm-6.335 1.994c-1.584 1.239-2.778 2.852-3.589 4.811l1.848.765c.689-1.665 1.682-2.99 2.973-4.001l-1.232-1.575zm-3.6 4.839c-.718 1.893-1.205 3.91-1.464 6.047l1.985.241c.241-1.988.692-3.847 1.349-5.579l-1.87-.709zm-1.464 6.047a49.474 49.474 0 0 0-.382 5.933h2a47.4 47.4 0 0 1 .367-5.692l-1.985-.241zm-.382 5.933c0 1.785.095 3.752.285 5.9l1.992-.176a65.359 65.359 0 0 1-.277-5.724h-2zm.288 5.929a28.853 28.853 0 0 0 1.457 6.311l1.884-.668a26.98 26.98 0 0 1-1.355-5.877l-1.986.234zm1.466 6.338c.8 2.065 1.945 3.794 3.448 5.16l1.345-1.48c-1.247-1.133-2.227-2.592-2.927-4.402l-1.866.722zm3.484 5.191c1.661 1.372 3.813 2.011 6.355 2.011v-2c-2.207 0-3.868-.55-5.082-1.553l-1.273 1.542zM88.844 288.766c-3.318 0-5.679-1.021-7.082-3.063-1.276-2.169-1.914-4.785-1.914-7.848V149.613c0-3.062.638-5.678 1.914-7.847 1.276-2.17 3.636-3.254 7.082-3.254 3.445 0 5.806 1.084 7.082 3.254 1.276 2.169 1.914 4.785 1.914 7.847v53.785h46.32v-53.785c0-3.062.638-5.678 1.914-7.847 1.276-2.17 3.637-3.254 7.082-3.254 3.446 0 5.806 1.084 7.082 3.254 1.276 2.169 1.914 4.785 1.914 7.847v128.242c0 3.063-.701 5.679-2.105 7.848-1.276 2.042-3.573 3.063-6.891 3.063-3.317 0-5.678-1.021-7.082-3.063-1.276-2.169-1.914-4.785-1.914-7.848v-57.613H97.84v57.613c0 3.063-.702 5.679-2.106 7.848-1.276 2.042-3.572 3.063-6.89 3.063zm130.156 0c-3.573 0-6.061-1.085-7.465-3.254-1.276-2.297-1.914-5.041-1.914-8.231V158.227h-25.457c-2.807 0-5.104-.638-6.891-1.915-1.658-1.403-2.488-3.636-2.488-6.699 0-2.935.83-5.04 2.488-6.316 1.787-1.404 4.084-2.106 6.891-2.106h69.481c2.934 0 5.231.702 6.89 2.106 1.787 1.276 2.68 3.445 2.68 6.508 0 3.062-.893 5.231-2.68 6.507-1.786 1.277-4.083 1.915-6.89 1.915h-25.266v119.054c0 3.19-.702 5.934-2.106 8.231-1.276 2.169-3.7 3.254-7.273 3.254zm98 0c-3.573 0-6.061-1.085-7.465-3.254-1.276-2.297-1.914-5.041-1.914-8.231V158.227h-25.457c-2.807 0-5.104-.638-6.891-1.915-1.658-1.403-2.488-3.636-2.488-6.699 0-2.935.83-5.04 2.488-6.316 1.787-1.404 4.084-2.106 6.891-2.106h69.481c2.934 0 5.231.702 6.89 2.106 1.787 1.276 2.68 3.445 2.68 6.508 0 3.062-.893 5.231-2.68 6.507-1.786 1.277-4.083 1.915-6.89 1.915h-25.266v119.054c0 3.19-.702 5.934-2.106 8.231-1.276 2.169-3.7 3.254-7.273 3.254zm65.844-.192c-3.318 0-5.679-1.021-7.082-3.062-1.276-2.17-1.914-4.785-1.914-7.848V156.312c0-4.21 1.467-7.783 4.402-10.718 2.935-2.935 6.508-4.403 10.719-4.403h21.629c4.338 0 9.315.319 14.929.957 5.743.511 10.528 1.851 14.356 4.02 6.508 3.7 11.165 8.549 13.972 14.547 2.935 5.997 4.403 12.696 4.403 20.097 0 13.782-3.637 24.245-10.91 31.391-7.274 7.146-17.801 10.783-31.582 10.91H391.84v54.551c0 3.063-.702 5.678-2.106 7.848-1.276 2.041-3.573 3.062-6.89 3.062zm8.996-81.73h17.801c9.57 0 16.971-1.723 22.203-5.168 5.232-3.573 7.847-10.591 7.847-21.055 0-9.06-2.488-15.185-7.464-18.375-4.849-3.19-11.485-4.785-19.907-4.785h-12.824c-5.104 0-7.656 2.552-7.656 7.656v41.727z"/></g></g></g><defs><clipPath id="b"><rect x="12" y="12" width="512" height="512" rx="128" fill="#fff"/></clipPath><clipPath id="c"><path fill="#fff" transform="translate(53 116)" d="M0 0h430v322H0z"/></clipPath><filter id="a" x="0" y="0" width="536" height="536" filterUnits="userSpaceOnUse" color-interpolation-filters="sRGB"><feFlood flood-opacity="0" result="BackgroundImageFix"/><feColorMatrix in="SourceAlpha" values="0 0 0 0 0 0 0 0 0 0 0 0 0 0 0 0 0 0 127 0" result="hardAlpha"/><feOffset/><feGaussianBlur stdDeviation="6"/><feComposite in2="hardAlpha" operator="out"/><feColorMatrix values="0 0 0 0 0 0 0 0 0 0 0 0 0 0 0 0 0 0 0.25 0"/><feBlend in2="BackgroundImageFix" result="effect1_dropShadow_1_30"/><feBlend in="SourceGraphic" in2="effect1_dropShadow_1_30" result="shape"/></filter></defs></svg>